<svg xmlns="http://www.w3.org/2000/svg" viewBox="0 0 500 500" fill="none" role="img" aria-label="Kotak811 logo">
<style>
.k811sec-p{stroke-dasharray:1;stroke-dashoffset:1;animation:k811sec-draw 2.2s ease-in-out forwards}
.k811sec-p2{animation-delay:.15s}
.k811sec-p3{animation-delay:.3s}
.k811sec-p4{animation-delay:.9s}
.k811sec-p5{animation-delay:1.05s}
@keyframes k811sec-draw{to{stroke-dashoffset:0}}
@media (prefers-reduced-motion:reduce){.k811sec-p{animation:none;stroke-dashoffset:0}}
</style>
<g transform="matrix(0.648148137110251,0,0,0.648148137110251,250.0000014570023,249.99998414957983)"><path class="k811sec-p k811sec-p1" pathLength="1" d="M53.229000091552734,246.8419952392578 C53.229000091552734,246.8419952392578 -53.229000091552734,246.8419952392578 -53.229000091552734,246.8419952392578 C-53.229000091552734,246.8419952392578 -53.229000091552734,-246.8419952392578 -53.229000091552734,-246.8419952392578 C-53.229000091552734,-246.8419952392578 53.229000091552734,-246.8419952392578 53.229000091552734,-246.8419952392578 C53.229000091552734,-246.8419952392578 53.229000091552734,246.8419952392578 53.229000091552734,246.8419952392578z" fill="none" stroke="#2F424E" stroke-width="5.5"/></g>
<g transform="matrix(0.648148137110251,0,0,0.648148137110251,179.0543473369435,253.186943256005)"><path class="k811sec-p k811sec-p2" pathLength="1" d="M-159.68899536132812,0 C-159.68899536132812,-88.19400024414062 -88.19400024414062,-159.68899536132812 0,-159.68899536132812 C88.19400024414062,-159.68899536132812 159.68899536132812,-88.19400024414062 159.68899536132812,0 C159.68899536132812,88.19300079345703 88.19400024414062,159.68899536132812 0,159.68899536132812 C-88.19400024414062,159.68899536132812 -159.68899536132812,88.19300079345703 -159.68899536132812,0z" fill="none" stroke="#2F424E" stroke-width="5.5"/></g>
<g transform="matrix(0.648148137110251,0,0,0.648148137110251,319.6493642478185,253.186943256005)"><path class="k811sec-p k811sec-p3" pathLength="1" d="M-159.68899536132812,0 C-159.68899536132812,-88.19400024414062 -88.19400024414062,-159.68899536132812 -0.0010000000474974513,-159.68899536132812 C88.19400024414062,-159.68899536132812 159.68899536132812,-88.19400024414062 159.68899536132812,0 C159.68899536132812,88.19300079345703 88.19400024414062,159.68899536132812 -0.0010000000474974513,159.68899536132812 C-88.19400024414062,159.68899536132812 -159.68899536132812,88.19300079345703 -159.68899536132812,0z" fill="none" stroke="#2F424E" stroke-width="5.5"/></g>
<g transform="matrix(0.648148137110251,0,0,0.648148137110251,320.94565557706113,253.18628804643953)"><path class="k811sec-p k811sec-p4" pathLength="1" d="M-53.22999954223633,0 C-53.22999954223633,-29.398000717163086 -29.398000717163086,-53.229000091552734 -0.0010000000474974513,-53.229000091552734 C29.398000717163086,-53.229000091552734 53.22999954223633,-29.398000717163086 53.22999954223633,0 C53.22999954223633,29.39699935913086 29.398000717163086,53.229000091552734 -0.0010000000474974513,53.229000091552734 C-29.398000717163086,53.229000091552734 -53.22999954223633,29.39699935913086 -53.22999954223633,0z" fill="none" stroke="#2F424E" stroke-width="5.5"/></g>
<g transform="matrix(0.648148137110251,0,0,0.648148137110251,180.3506411386751,253.18628804643953)"><path class="k811sec-p k811sec-p5" pathLength="1" d="M-53.229000091552734,0 C-53.229000091552734,-29.398000717163086 -29.398000717163086,-53.229000091552734 -0.0010000000474974513,-53.229000091552734 C29.39699935913086,-53.229000091552734 53.229000091552734,-29.398000717163086 53.229000091552734,0 C53.229000091552734,29.39699935913086 29.39699935913086,53.229000091552734 -0.0010000000474974513,53.229000091552734 C-29.398000717163086,53.229000091552734 -53.229000091552734,29.39699935913086 -53.229000091552734,0z" fill="none" stroke="#2F424E" stroke-width="5.5"/></g>
</svg>
