<svg xmlns="http://www.w3.org/2000/svg" viewBox="0 0 1080 1080" width="1080" height="1080" preserveAspectRatio="xMidYMid meet" role="img" aria-label="Kotak811 logo">
<style>
.k811sec-p{stroke-dasharray:1;stroke-dashoffset:1;animation:k811sec-draw 1.6s ease-in-out forwards}
.k811sec-p2{animation-delay:.12s}
.k811sec-p3{animation-delay:.24s}
.k811sec-p4{animation-delay:.36s}
.k811sec-p5{animation-delay:.9s}
.k811sec-p6{animation-delay:1.02s}
@keyframes k811sec-draw{to{stroke-dashoffset:0}}
@media (prefers-reduced-motion:reduce){.k811sec-p{animation:none;stroke-dashoffset:0}}
</style>
<g transform="matrix(1.6799999475479126,0,0,1.6799999475479126,-442.2658996582031,-367.199951171875)">
<g transform="matrix(1,0,0,1,586.5738525390625,291.51898193359375)"><g transform="matrix(1,0,-0.2867453992366791,1,54.86899948120117,248.4810028076172)"><path class="k811sec-p k811sec-p1" pathLength="1" fill="none" stroke="#2F424E" stroke-width="5.5" stroke-linecap="butt" stroke-linejoin="miter" stroke-miterlimit="10" d="M53.229000091552734,246.8419952392578 C53.229000091552734,246.8419952392578 -53.229000091552734,246.8419952392578 -53.229000091552734,246.8419952392578 C-53.229000091552734,246.8419952392578 -53.229000091552734,-246.8419952392578 -53.229000091552734,-246.8419952392578 C-53.229000091552734,-246.8419952392578 53.229000091552734,-246.8419952392578 53.229000091552734,-246.8419952392578 C53.229000091552734,-246.8419952392578 53.229000091552734,246.8419952392578 53.229000091552734,246.8419952392578z"></path></g></g>
<g transform="matrix(1,0,0,1,721.5238647460938,291.51898193359375)"><g transform="matrix(1,0,-0.2867453992366791,1,54.86899948120117,248.4810028076172)"><path class="k811sec-p k811sec-p2" pathLength="1" fill="none" stroke="#2F424E" stroke-width="5.5" stroke-linecap="butt" stroke-linejoin="miter" stroke-miterlimit="10" d="M53.229000091552734,246.8419952392578 C53.229000091552734,246.8419952392578 -53.229000091552734,246.8419952392578 -53.229000091552734,246.8419952392578 C-53.229000091552734,246.8419952392578 -53.229000091552734,-246.8419952392578 -53.229000091552734,-246.8419952392578 C-53.229000091552734,-246.8419952392578 53.229000091552734,-246.8419952392578 53.229000091552734,-246.8419952392578 C53.229000091552734,-246.8419952392578 53.229000091552734,246.8419952392578 53.229000091552734,246.8419952392578z"></path></g></g>
<g transform="matrix(0.787935733795166,0,0,0.787935733795166,266.4194641113281,278.7169494628906)"><g transform="matrix(1,0,0,1,165.48399353027344,165.48399353027344)"><path class="k811sec-p k811sec-p3" pathLength="1" fill="none" stroke="#2F424E" stroke-width="6.980264883592374" stroke-linecap="butt" stroke-linejoin="miter" stroke-miterlimit="10" d="M-159.68899536132812,0 C-159.68899536132812,-88.19400024414062 -88.19400024414062,-159.68899536132812 0,-159.68899536132812 C88.19400024414062,-159.68899536132812 159.68899536132812,-88.19400024414062 159.68899536132812,0 C159.68899536132812,88.19300079345703 88.19400024414062,159.68899536132812 0,159.68899536132812 C-88.19400024414062,159.68899536132812 -159.68899536132812,88.19300079345703 -159.68899536132812,0z"></path></g></g>
<g transform="matrix(0.787935733795166,0,0,0.787935733795166,267.1427917480469,528.0701904296875)"><g transform="matrix(1,0,0,1,165.48399353027344,165.48399353027344)"><path class="k811sec-p k811sec-p4" pathLength="1" fill="none" stroke="#2F424E" stroke-width="6.980264883592374" stroke-linecap="butt" stroke-linejoin="miter" stroke-miterlimit="10" d="M-159.68899536132812,0 C-159.68899536132812,-88.19400024414062 -88.19400024414062,-159.68899536132812 -0.0010000000474974513,-159.68899536132812 C88.19400024414062,-159.68899536132812 159.68899536132812,-88.19400024414062 159.68899536132812,0 C159.68899536132812,88.19300079345703 88.19400024414062,159.68899536132812 -0.0010000000474974513,159.68899536132812 C-88.19400024414062,159.68899536132812 -159.68899536132812,88.19300079345703 -159.68899536132812,0z"></path></g></g>
<g transform="matrix(0.028421970084309578,0,0,0.028421970084309578,397.4317932128906,656.7825317382812)"><g transform="matrix(1,0,0,1,59.025001525878906,59.02399826049805)"><path class="k811sec-p k811sec-p5" pathLength="1" fill="none" stroke="#2F424E" stroke-width="20" stroke-linecap="butt" stroke-linejoin="miter" stroke-miterlimit="1" d="M-53.22999954223633,0 C-53.22999954223633,-29.398000717163086 -29.398000717163086,-53.229000091552734 -0.0010000000474974513,-53.229000091552734 C29.398000717163086,-53.229000091552734 53.22999954223633,-29.398000717163086 53.22999954223633,0 C53.22999954223633,29.39699935913086 29.398000717163086,53.229000091552734 -0.0010000000474974513,53.229000091552734 C-29.398000717163086,53.229000091552734 -53.22999954223633,29.39699935913086 -53.22999954223633,0z"></path></g></g>
<g transform="matrix(0.028421970084309578,0,0,0.028421970084309578,396.7085266113281,407.4293518066406)"><g transform="matrix(1,0,0,1,59.02399826049805,59.02399826049805)"><path class="k811sec-p k811sec-p6" pathLength="1" fill="none" stroke="#2F424E" stroke-width="20" stroke-linecap="butt" stroke-linejoin="miter" stroke-miterlimit="10" d="M-53.229000091552734,0 C-53.229000091552734,-29.398000717163086 -29.398000717163086,-53.229000091552734 -0.0010000000474974513,-53.229000091552734 C29.39699935913086,-53.229000091552734 53.229000091552734,-29.398000717163086 53.229000091552734,0 C53.229000091552734,29.39699935913086 29.39699935913086,53.229000091552734 -0.0010000000474974513,53.229000091552734 C-29.398000717163086,53.229000091552734 -53.229000091552734,29.39699935913086 -53.229000091552734,0z"></path></g></g>
</g>
</svg>
